<svg fill="#000" xmlns="http://www.w3.org/2000/svg" viewBox="0 0 47 30"><path fill-rule="evenodd" clip-rule="evenodd" d="M14.986 0h16.636l12.546 20.529v-16.5c0-2.872-.348-3.172-1.96-3.6V0H47v.429c-1.612.428-1.96.728-1.96 3.6V30h-1.83L27.396 3.471c-.261-.428-.479-.771-.697-1.071v23.571c0 2.872.349 3.172 1.96 3.6V30H14.987v-.429c1.568-.428 1.96-.728 1.96-3.6V15.3H6.97v10.671c0 2.872.349 3.172 1.96 3.6V30H0v-.429c1.568-.428 1.96-.728 1.96-3.6V4.03c0-2.872-.392-3.172-1.96-3.6V0h8.93v.429c-1.611.428-1.96.728-1.96 3.6v10.414h9.976V4.029c0-2.872-.392-3.172-1.96-3.6V0Zm8.906 29.565c1.548-.425 1.936-.737 1.936-3.594V1.414c-.599-.515-1.1-.683-1.7-.882l-.264-.09c-1.567.422-1.908.746-1.908 3.587V25.97c0 2.857.345 3.169 1.936 3.594Z" /></svg>
