<svg fill="#000" xmlns="http://www.w3.org/2000/svg" viewBox="0 0 16 16"><path fill-rule="evenodd" clip-rule="evenodd" d="M8 2.667a.667.667 0 0 0-.667.666V4a.667.667 0 0 0 1.334 0v-.667A.667.667 0 0 0 8 2.667Zm-1.414-.748A2 2 0 0 1 10 3.333h2.667a2 2 0 0 1 2 2v6a2 2 0 0 1-2 2H3.333a2 2 0 0 1-2-2v-6a2 2 0 0 1 2-2H6a2 2 0 0 1 .586-1.414Zm-.472 2.748h-2.78a.667.667 0 0 0-.667.666v6a.667.667 0 0 0 .666.667h9.334a.667.667 0 0 0 .666-.667v-6a.667.667 0 0 0-.666-.666H9.886a2 2 0 0 1-3.772 0ZM4.586 6.586A2 2 0 0 1 7.6 9.2c.416.313.738.744.915 1.244a.667.667 0 0 1-1.257.445 1.334 1.334 0 0 0-2.516 0 .667.667 0 0 1-1.257-.445c.175-.496.494-.93.915-1.244a2 2 0 0 1 .186-2.614ZM6 8.666a.667.667 0 1 1 0-1.333.667.667 0 0 1 0 1.334m3.333-1.334c0-.368.299-.666.667-.666h2A.667.667 0 1 1 12 8h-2a.667.667 0 0 1-.667-.667Zm0 2.667c0-.368.299-.667.667-.667h1.333a.667.667 0 0 1 0 1.334H10A.667.667 0 0 1 9.333 10Z" /></svg>
