<svg fill="#000" xmlns="http://www.w3.org/2000/svg" viewBox="0 0 16 16"><path fill-rule="evenodd" clip-rule="evenodd" d="M7.667 2.667A.333.333 0 0 0 7.333 3v4.333a.667.667 0 1 1-1.333 0V3.667a.333.333 0 0 0-.667 0v5.666a.667.667 0 1 1-1.333 0V7.667a.333.333 0 0 0-.667 0V9A4.333 4.333 0 1 0 12 9V5.667a.333.333 0 1 0-.667 0v1.666a.667.667 0 1 1-1.333 0V3.667a.333.333 0 0 0-.667 0v3.666a.667.667 0 1 1-1.333 0V3a.333.333 0 0 0-.333-.333Zm1.408-.558a1.666 1.666 0 0 0-2.817 0A1.666 1.666 0 0 0 4 3.667v2.367a1.666 1.666 0 0 0-2 1.633V9a5.667 5.667 0 1 0 11.333 0V5.667a1.667 1.667 0 0 0-2-1.633v-.367a1.667 1.667 0 0 0-2.258-1.558Z" /></svg>
