<svg fill="#000" xmlns="http://www.w3.org/2000/svg" viewBox="0 0 16 16"><path fill-rule="evenodd" clip-rule="evenodd" d="M12.234 1.376c.26.097.433.346.433.624v2.085a2.666 2.666 0 0 1 0 5.164v2.084a.667.667 0 0 1-1.169.439c-.409-.468-1.132-.916-2.125-1.248A9.715 9.715 0 0 0 8 10.181v2.646a1.841 1.841 0 0 1-3.572.62l-.002-.006-1.34-3.84a3.332 3.332 0 0 1-.528-5.515 3.334 3.334 0 0 1 2.108-.753h1.222a12.511 12.511 0 0 0 1.386-.076c.767-.085 1.476-.24 2.098-.448.994-.331 1.717-.78 2.126-1.248a.667.667 0 0 1 .736-.185Zm-5.567 3.27c-.256.013-.516.02-.779.02H4.667a2.001 2.001 0 0 0-.782 3.842m2.782-3.863v4.043a14.088 14.088 0 0 0-.779-.021H4.667c-.268 0-.534-.054-.782-.16M8 8.83V4.505c.639-.101 1.242-.247 1.794-.431a7.937 7.937 0 0 0 1.54-.69v6.565a7.934 7.934 0 0 0-1.54-.69A11.204 11.204 0 0 0 8 8.83Zm-1.333 1.195A12.74 12.74 0 0 0 5.888 10h-1.22m1.999.024v2.802a.507.507 0 0 1-.983.173l-1.047-3m8.03-2.178a1.332 1.332 0 0 0 0-2.309v2.31Z" /></svg>
