<svg fill="#000" xmlns="http://www.w3.org/2000/svg" viewBox="0 0 16 16"><path fill-rule="evenodd" clip-rule="evenodd" d="M3.333 1.333c.368 0 .667.299.667.667v.667h.667a.667.667 0 1 1 0 1.333H4v.667a.667.667 0 0 1-1.333 0V4H2a.667.667 0 0 1 0-1.333h.667V2c0-.368.298-.667.666-.667Zm5.334 0c.287 0 .541.184.632.456l1.424 4.27 3.511 1.317a.667.667 0 0 1 0 1.248l-3.511 1.317-1.424 4.27a.667.667 0 0 1-1.265 0L6.611 9.94 3.099 8.624a.667.667 0 0 1 0-1.248l3.512-1.317 1.423-4.27a.667.667 0 0 1 .633-.456Zm0 2.775-.892 2.674a.667.667 0 0 1-.398.414L5.232 8l2.145.804c.188.071.334.223.398.414l.892 2.674.891-2.674a.667.667 0 0 1 .398-.414L12.101 8l-2.145-.804a.667.667 0 0 1-.398-.414l-.891-2.674ZM4 10.667c.368 0 .667.298.667.666V12h.666a.667.667 0 0 1 0 1.333h-.666V14a.667.667 0 0 1-1.334 0v-.667h-.666a.667.667 0 0 1 0-1.333h.666v-.667c0-.368.299-.666.667-.666Z" /></svg>
